<svg id="Layer_1" data-name="Layer 1" xmlns="http://www.w3.org/2000/svg" viewBox="0 0 482.39 241.97"><defs><style>.cls-1{fill:none;}.cls-2{fill:#ffd495;}.cls-3{fill:#f27d2f;}.cls-4{fill:#fda670;}.cls-5{fill:#dff0f7;}.cls-6{fill:#ebf5fa;}.cls-7{fill:#d0eaf5;}.cls-8{fill:#008ec0;}.cls-9{fill:#00a7d5;}.cls-10{fill:#68c3e2;}.cls-11{fill:#f8d44c;}</style></defs><title>fios_laptop_router</title><path class="cls-1" d="M901,870.62a2.8,2.8,0,0,1,1.09-.22A2.8,2.8,0,0,0,901,870.62Z" transform="translate(-756.31 -649.48)"/><path class="cls-1" d="M926.28,873.2h0s0,0,0,0S926.28,873.18,926.28,873.2Z" transform="translate(-756.31 -649.48)"/><path class="cls-1" d="M973,870.4a2.79,2.79,0,0,1,1.09.22A2.79,2.79,0,0,0,973,870.4Z" transform="translate(-756.31 -649.48)"/><path class="cls-1" d="M982,870.62a2.79,2.79,0,0,1,1.09-.22A2.79,2.79,0,0,0,982,870.62Z" transform="translate(-756.31 -649.48)"/><path class="cls-1" d="M927.1,871.22s0.1-.06.14-0.09S927.14,871.18,927.1,871.22Z" transform="translate(-756.31 -649.48)"/><path class="cls-1" d="M1009,870.62a2.79,2.79,0,0,1,1.09-.22A2.79,2.79,0,0,0,1009,870.62Z" transform="translate(-756.31 -649.48)"/><path class="cls-1" d="M1027,870.4a2.79,2.79,0,0,1,1.09.22A2.79,2.79,0,0,0,1027,870.4Z" transform="translate(-756.31 -649.48)"/><path class="cls-1" d="M1056.85,873.2a2.65,2.65,0,0,0-.07-0.37,2.66,2.66,0,0,1,.07.37h0Z" transform="translate(-756.31 -649.48)"/><polygon class="cls-1" points="142.95 223.72 142.95 223.72 142.95 223.71 142.95 223.72"/><path class="cls-1" d="M1036,870.62a2.79,2.79,0,0,1,1.09-.22A2.79,2.79,0,0,0,1036,870.62Z" transform="translate(-756.31 -649.48)"/><path class="cls-1" d="M900.08,871.22a2.85,2.85,0,0,1,.48-0.32A2.85,2.85,0,0,0,900.08,871.22Z" transform="translate(-756.31 -649.48)"/><path class="cls-1" d="M1000,870.4a2.79,2.79,0,0,1,1.09.22A2.79,2.79,0,0,0,1000,870.4Z" transform="translate(-756.31 -649.48)"/><polygon class="cls-1" points="196.98 223.71 196.98 223.71 196.98 223.71 196.98 223.71"/><path class="cls-1" d="M928,870.62a2.8,2.8,0,0,1,1.09-.22A2.8,2.8,0,0,0,928,870.62Z" transform="translate(-756.31 -649.48)"/><path class="cls-1" d="M955,870.62a2.8,2.8,0,0,1,1.09-.22A2.8,2.8,0,0,0,955,870.62Z" transform="translate(-756.31 -649.48)"/><path class="cls-1" d="M954.11,871.22s0.1-.06.15-0.1S954.16,871.18,954.11,871.22Z" transform="translate(-756.31 -649.48)"/><path class="cls-2" d="M801.34,660.63a5.52,5.52,0,0,1,5.52-5.52h315.39a5.5,5.5,0,0,1,3.9,1.62l3.93-3.93a11.16,11.16,0,0,0-8-3.32H806.85a11.2,11.2,0,0,0-11.2,11.2l0.05,213.87h5.63V660.63Z" transform="translate(-756.31 -649.48)"/><path class="cls-2" d="M837.92,870.4H821a2.8,2.8,0,0,0-2.8,2.8v1.36h22.51V873.2A2.8,2.8,0,0,0,837.92,870.4Z" transform="translate(-756.31 -649.48)"/><path class="cls-2" d="M975.8,874.53V873.2a2.8,2.8,0,0,0-2.8-2.8H956.09a2.57,2.57,0,0,0-1.83.72s-0.1.06-.15,0.1a2.79,2.79,0,0,0-.82,2h0v1.36h11.27v0H975.8Z" transform="translate(-756.31 -649.48)"/><rect class="cls-2" x="208.25" y="225.05" width="11.24" height="0.02"/><path class="cls-2" d="M980.31,873.2v1.33h22.51V873.2a2.8,2.8,0,0,0-2.8-2.8H983.11A2.8,2.8,0,0,0,980.31,873.2Z" transform="translate(-756.31 -649.48)"/><rect class="cls-2" x="223.99" y="225.05" width="22.51" height="0.02"/><path class="cls-2" d="M1007.32,873.2v1.33h22.51V873.2a2.8,2.8,0,0,0-2.8-2.8h-16.91A2.8,2.8,0,0,0,1007.32,873.2Z" transform="translate(-756.31 -649.48)"/><rect class="cls-2" x="251.01" y="225.05" width="22.51" height="0.02"/><path class="cls-2" d="M1034.34,873.2v1.33h22.51V873.2a2.66,2.66,0,0,0-.07-0.37,2.77,2.77,0,0,0-2.73-2.44h-16.91A2.8,2.8,0,0,0,1034.34,873.2Z" transform="translate(-756.31 -649.48)"/><rect class="cls-2" x="278.03" y="225.05" width="22.51" height="0.02"/><path class="cls-2" d="M1061.35,873.2v1.33h22.51V873.2a2.8,2.8,0,0,0-2.8-2.8h-16.91A2.8,2.8,0,0,0,1061.35,873.2Z" transform="translate(-756.31 -649.48)"/><rect class="cls-2" x="305.04" y="225.05" width="22.51" height="0.02"/><path class="cls-2" d="M1110.88,874.53V873.2a2.8,2.8,0,0,0-2.8-2.8h-16.91a2.8,2.8,0,0,0-2.8,2.8v1.33h22.51Z" transform="translate(-756.31 -649.48)"/><rect class="cls-2" x="332.06" y="225.05" width="22.51" height="0.02"/><circle class="cls-2" cx="208.24" cy="14.04" r="2.81"/><path class="cls-2" d="M864.94,870.4H848a2.8,2.8,0,0,0-2.8,2.8v1.36h22.51V873.2A2.8,2.8,0,0,0,864.94,870.4Z" transform="translate(-756.31 -649.48)"/><path class="cls-2" d="M946,870.4H929.08a2.58,2.58,0,0,0-1.84.73s-0.1.05-.14,0.09a2.79,2.79,0,0,0-.81,1.93s0,0,0,0v1.36h22.51V873.2A2.8,2.8,0,0,0,946,870.4Z" transform="translate(-756.31 -649.48)"/><path class="cls-2" d="M919,870.4H902.06a2.8,2.8,0,0,0-1.09.22,2.74,2.74,0,0,0-.41.28,2.85,2.85,0,0,0-.48.32,2.8,2.8,0,0,0-.82,2h0v1.36h22.51V873.2A2.8,2.8,0,0,0,919,870.4Z" transform="translate(-756.31 -649.48)"/><path class="cls-2" d="M894.76,873.2a2.8,2.8,0,0,0-2.8-2.8H875a2.8,2.8,0,0,0-2.8,2.8v1.36h22.51V873.2Z" transform="translate(-756.31 -649.48)"/><path class="cls-3" d="M1127.77,660.63v213.9h5.56V660.68a11.16,11.16,0,0,0-3.25-7.88l-3.93,3.93A5.5,5.5,0,0,1,1127.77,660.63Z" transform="translate(-756.31 -649.48)"/><rect class="cls-3" x="371.46" y="225.05" width="5.56" height="0.02"/><line class="cls-4" x1="251.01" y1="225.08" x2="251.01" y2="225.05"/><line class="cls-4" x1="246.51" y1="225.05" x2="246.51" y2="225.08"/><line class="cls-4" x1="278.02" y1="225.08" x2="278.02" y2="225.05"/><line class="cls-4" x1="273.52" y1="225.05" x2="273.52" y2="225.08"/><line class="cls-4" x1="371.46" y1="225.08" x2="371.46" y2="225.05"/><line class="cls-4" x1="354.57" y1="225.05" x2="354.57" y2="225.08"/><line class="cls-4" x1="332.06" y1="225.08" x2="332.06" y2="225.05"/><line class="cls-4" x1="327.55" y1="225.05" x2="327.55" y2="225.08"/><line class="cls-4" x1="223.99" y1="225.08" x2="223.99" y2="225.05"/><line class="cls-4" x1="219.49" y1="225.05" x2="219.49" y2="225.08"/><line class="cls-4" x1="305.04" y1="225.08" x2="305.04" y2="225.05"/><line class="cls-4" x1="300.54" y1="225.05" x2="300.54" y2="225.08"/><path class="cls-4" d="M975.8,873.2v1.33h0V873.2a2.8,2.8,0,0,0-1.71-2.58A2.8,2.8,0,0,1,975.8,873.2Z" transform="translate(-756.31 -649.48)"/><path class="cls-4" d="M954.26,871.12a2.79,2.79,0,0,1,.74-0.5A2.79,2.79,0,0,0,954.26,871.12Z" transform="translate(-756.31 -649.48)"/><path class="cls-4" d="M953.29,873.19a2.79,2.79,0,0,1,.82-2A2.79,2.79,0,0,0,953.29,873.19Z" transform="translate(-756.31 -649.48)"/><rect class="cls-4" x="196.98" y="223.72" height="1.36"/><rect class="cls-4" x="219.49" y="225.05" height="0.02"/><path class="cls-4" d="M1002.82,873.2v1.33h0V873.2a2.8,2.8,0,0,0-1.71-2.58A2.8,2.8,0,0,1,1002.82,873.2Z" transform="translate(-756.31 -649.48)"/><path class="cls-4" d="M980.31,873.2a2.8,2.8,0,0,1,1.71-2.58,2.8,2.8,0,0,0-1.71,2.58v1.33h0V873.2Z" transform="translate(-756.31 -649.48)"/><rect class="cls-4" x="223.99" y="225.05" height="0.02"/><rect class="cls-4" x="246.51" y="225.05" height="0.02"/><path class="cls-4" d="M1007.32,873.2a2.8,2.8,0,0,1,1.71-2.58,2.8,2.8,0,0,0-1.71,2.58v1.33h0V873.2Z" transform="translate(-756.31 -649.48)"/><path class="cls-4" d="M1029.83,873.2v1.33h0V873.2a2.8,2.8,0,0,0-1.71-2.58A2.8,2.8,0,0,1,1029.83,873.2Z" transform="translate(-756.31 -649.48)"/><rect class="cls-4" x="251.01" y="225.05" height="0.02"/><rect class="cls-4" x="273.52" y="225.05" height="0.02"/><path class="cls-4" d="M1034.34,873.2a2.8,2.8,0,0,1,1.71-2.58,2.8,2.8,0,0,0-1.71,2.58v1.33h0V873.2Z" transform="translate(-756.31 -649.48)"/><path class="cls-4" d="M1056.77,872.83a2.77,2.77,0,0,0-2.73-2.44A2.77,2.77,0,0,1,1056.77,872.83Z" transform="translate(-756.31 -649.48)"/><rect class="cls-4" x="278.02" y="225.05" height="0.02"/><path class="cls-4" d="M1061.35,873.2a2.8,2.8,0,0,1,2.8-2.8,2.8,2.8,0,0,0-2.8,2.8v1.33h0V873.2Z" transform="translate(-756.31 -649.48)"/><rect class="cls-4" x="305.04" y="225.05" height="0.02"/><rect class="cls-4" x="332.06" y="223.72" height="1.33"/><rect class="cls-4" x="332.06" y="225.05" height="0.02"/><rect class="cls-4" x="169.96" y="223.72" height="1.36"/><path class="cls-4" d="M926.28,873.15a2.79,2.79,0,0,1,.81-1.93A2.8,2.8,0,0,0,926.28,873.15Z" transform="translate(-756.31 -649.48)"/><path class="cls-4" d="M927.24,871.12a2.78,2.78,0,0,1,.75-0.51A2.78,2.78,0,0,0,927.24,871.12Z" transform="translate(-756.31 -649.48)"/><rect class="cls-4" x="142.95" y="223.72" height="1.36"/><path class="cls-4" d="M900.56,870.89a2.74,2.74,0,0,1,.41-0.28A2.7,2.7,0,0,0,900.56,870.89Z" transform="translate(-756.31 -649.48)"/><path class="cls-4" d="M899.26,873.19a2.8,2.8,0,0,1,.82-2A2.79,2.79,0,0,0,899.26,873.19Z" transform="translate(-756.31 -649.48)"/><path class="cls-3" d="M1043.35,877.38v0.81a7.62,7.62,0,0,1-7.62,7.62H893.39a7.62,7.62,0,0,1-7.62-7.62v-0.81H756.31v0.81h0c0,7.32,4.93,13.26,12.26,13.26h392c7.32,0,12.26-5.94,12.26-13.26h0v-0.81H1043.35Z" transform="translate(-756.31 -649.48)"/><path class="cls-4" d="M1127.77,874.56V660.63a5.52,5.52,0,0,0-5.52-5.52H806.86a5.52,5.52,0,0,0-5.52,5.52V874.56h-45v2.82H885.77v0.81a7.62,7.62,0,0,0,7.62,7.62h142.34a7.62,7.62,0,0,0,7.62-7.62v-0.81h129.44v-2.82h-45ZM964.55,660.71a2.81,2.81,0,1,1-2.81,2.81A2.81,2.81,0,0,1,964.55,660.71ZM840.73,874.56H818.21V873.2a2.8,2.8,0,0,1,2.8-2.8h16.91a2.8,2.8,0,0,1,2.8,2.8v1.36Zm27,0H845.23V873.2a2.8,2.8,0,0,1,2.8-2.8h16.91a2.8,2.8,0,0,1,2.8,2.8v1.36Zm27,0H872.25V873.2a2.8,2.8,0,0,1,2.8-2.8H892a2.8,2.8,0,0,1,2.8,2.8v1.36Zm27,0H899.26V873.2h0a2.79,2.79,0,0,1,.82-2,2.85,2.85,0,0,1,.48-0.32,2.7,2.7,0,0,1,.41-0.28,2.8,2.8,0,0,1,1.09-.22H919a2.8,2.8,0,0,1,2.8,2.8v1.36Zm27,0H926.28V873.2h0s0,0,0,0a2.8,2.8,0,0,1,.81-1.93s0.1-.06.14-0.09a2.58,2.58,0,0,1,1.84-.73H946a2.8,2.8,0,0,1,2.8,2.8v1.36Zm58.53,0h-54V873.2h0a2.79,2.79,0,0,1,.82-2s0.1-.06.15-0.1a2.57,2.57,0,0,1,1.83-.72H973a2.8,2.8,0,0,1,2.8,2.8v1.33h4.5V873.2a2.8,2.8,0,0,1,2.8-2.8H1000a2.8,2.8,0,0,1,2.8,2.8v1.33h4.5V873.2a2.8,2.8,0,0,1,2.8-2.8H1027a2.8,2.8,0,0,1,2.8,2.8v1.36h-22.51Zm27,0h0V873.2a2.8,2.8,0,0,1,2.8-2.8H1054a2.77,2.77,0,0,1,2.73,2.44v1.72h-22.44Zm27,0h-0.07v0h0.07V873.2a2.8,2.8,0,0,1,2.8-2.8h16.91a2.8,2.8,0,0,1,2.8,2.8v1.36h-22.51Zm49.53,0v0h-22.51v0h0V873.2h0a2.8,2.8,0,0,1,2.8-2.8h16.91a2.8,2.8,0,0,1,2.8,2.8v1.33Zm11.26-16.85H806.91V672h315.24V857.68Z" transform="translate(-756.31 -649.48)"/><polygon class="cls-5" points="365.83 22.51 208.21 134.5 311.94 208.2 365.83 208.2 365.83 22.51"/><polygon class="cls-5" points="50.59 22.51 50.59 208.2 104.49 208.2 208.21 134.5 50.59 22.51"/><polygon class="cls-6" points="365.83 22.51 365.83 22.51 50.59 22.51 50.59 22.51 208.21 134.5 365.83 22.51"/><polygon class="cls-7" points="104.49 208.2 311.94 208.2 208.21 134.5 104.49 208.2"/><rect class="cls-8" x="441.27" y="230.97" width="27.47" height="5.5"/><path class="cls-9" d="M1238.7,891.45H1183.8a5.5,5.5,0,0,1,5.5-5.5h43.89a5.5,5.5,0,0,1,5.5,5.5h0Z" transform="translate(-756.31 -649.48)"/><path class="cls-10" d="M1219.55,675.66a4.25,4.25,0,0,0-4.25-4.21h-8a4.26,4.26,0,0,0-4.26,4.26v184a4.28,4.28,0,0,0,4.26,4.26h8a4.26,4.26,0,0,0,4.26-4.25v-184Z" transform="translate(-756.31 -649.48)"/><path class="cls-9" d="M1219.56,857.43V675.7s0,0,0,0V857.43h0Z" transform="translate(-756.31 -649.48)"/><rect class="cls-9" x="1219.56" y="857.43" height="2.27" transform="translate(-570.77 1283.9) rotate(-81.25)"/><path class="cls-7" d="M1203.06,859.69v-184a557.93,557.93,0,0,0-6.17,73.18l-2.09,119a29.38,29.38,0,0,0,2.76,12.65l6.16-18.5A4.23,4.23,0,0,1,1203.06,859.69Z" transform="translate(-756.31 -649.48)"/><polygon class="cls-7" points="442.7 226.62 442.7 226.62 445.83 217.22 442.7 226.62"/><polygon class="cls-9" points="446.75 214.47 445.83 217.22 446.75 214.47 446.75 214.47"/><path class="cls-9" d="M1225.72,748.83a558,558,0,0,0-6.17-73.18h0s0,0,0,0v184h0a4.26,4.26,0,0,1-4.26,4.25h-8a4.24,4.24,0,0,1-3.59-2l-6.16,18.5h27.49a29.37,29.37,0,0,0,2.75-12.65Z" transform="translate(-756.31 -649.48)"/><rect class="cls-9" x="1207.32" y="863.95" width="3.24" transform="translate(-678.74 1177.77) rotate(-75.96)"/><rect class="cls-9" x="455.18" y="214.47" width="3.81"/><rect class="cls-9" x="454.25" y="214.47" width="0.94"/><path class="cls-11" d="M1213.27,688.76a2.77,2.77,0,1,0,.81,2A2.76,2.76,0,0,0,1213.27,688.76Z" transform="translate(-756.31 -649.48)"/><path class="cls-11" d="M1213.27,699.76a2.77,2.77,0,1,0,.81,2A2.76,2.76,0,0,0,1213.27,699.76Z" transform="translate(-756.31 -649.48)"/><path class="cls-11" d="M1213.27,710.76a2.77,2.77,0,1,0,.81,2A2.76,2.76,0,0,0,1213.27,710.76Z" transform="translate(-756.31 -649.48)"/></svg>